{
	"asset":{
		"generator":"Khronos glTF Blender I/O v4.3.47",
		"version":"2.0"
	},
	"scene":0,
	"scenes":[
		{
			"name":"Scene",
			"nodes":[
				8
			]
		}
	],
	"nodes":[
		{
			"name":"root_0",
			"rotation":[
				-0.70710688829422,
				-1.2101614821347084e-08,
				-1.2101618374060763e-08,
				0.7071066498756409
			]
		},
		{
			"children":[
				0
			],
			"name":"GLTF_created_0_rootJoint",
			"rotation":[
				-8.557136332854043e-09,
				1.7114272665708086e-08,
				-2.928983286277023e-16,
				1
			]
		},
		{
			"mesh":0,
			"name":"Object_7",
			"skin":0
		},
		{
			"name":"SM_Camcorder_01a_SM_Camcorder_01a.smd_1"
		},
		{
			"children":[
				2,
				3,
				1
			],
			"name":"GLTF_created_0"
		},
		{
			"children":[
				4
			],
			"name":"SM_Camcorder_01a_ARM_2"
		},
		{
			"children":[
				5
			],
			"name":"GLTF_SceneRootNode",
			"rotation":[
				0.70710688829422,
				0,
				0,
				0.7071066498756409
			]
		},
		{
			"children":[
				6
			],
			"name":"root"
		},
		{
			"children":[
				7
			],
			"name":"Sketchfab_model",
			"rotation":[
				-0.70710688829422,
				0,
				0,
				0.7071066498756409
			],
			"scale":[
				10,
				10.000000953674316,
				10.000000953674316
			]
		}
	],
	"materials":[
		{
			"doubleSided":true,
			"name":"MI_Camcorder_01a",
			"normalTexture":{
				"index":0
			},
			"pbrMetallicRoughness":{
				"baseColorTexture":{
					"index":1
				},
				"metallicRoughnessTexture":{
					"index":2
				}
			}
		}
	],
	"meshes":[
		{
			"name":"Object_0",
			"primitives":[
				{
					"attributes":{
						"POSITION":0,
						"NORMAL":1,
						"TEXCOORD_0":2,
						"TEXCOORD_1":3,
						"TEXCOORD_2":4,
						"TEXCOORD_3":5,
						"JOINTS_0":6,
						"WEIGHTS_0":7
					},
					"indices":8,
					"material":0
				}
			]
		}
	],
	"textures":[
		{
			"sampler":0,
			"source":0
		},
		{
			"sampler":0,
			"source":1
		},
		{
			"sampler":0,
			"source":2
		}
	],
	"images":[
		{
			"mimeType":"image/png",
			"name":"MI_Camcorder_01a_normal",
			"uri":"MI_Camcorder_01a_normal.png"
		},
		{
			"mimeType":"image/png",
			"name":"MI_Camcorder_01a_baseColor",
			"uri":"MI_Camcorder_01a_baseColor.png"
		},
		{
			"mimeType":"image/png",
			"name":"MI_Camcorder_01a_metallicRoughness",
			"uri":"MI_Camcorder_01a_metallicRoughness.png"
		}
	],
	"skins":[
		{
			"inverseBindMatrices":9,
			"joints":[
				1,
				0
			],
			"name":"GLTF_created_0"
		}
	],
	"accessors":[
		{
			"bufferView":0,
			"componentType":5126,
			"count":5249,
			"max":[
				0.9338010549545288,
				2.5754435062408447,
				2.413109540939331
			],
			"min":[
				-1.0340540409088135,
				-0.008468334563076496,
				-1.852607011795044
			],
			"type":"VEC3"
		},
		{
			"bufferView":1,
			"componentType":5126,
			"count":5249,
			"type":"VEC3"
		},
		{
			"bufferView":2,
			"componentType":5126,
			"count":5249,
			"type":"VEC2"
		},
		{
			"bufferView":3,
			"componentType":5126,
			"count":5249,
			"type":"VEC2"
		},
		{
			"bufferView":4,
			"componentType":5126,
			"count":5249,
			"type":"VEC2"
		},
		{
			"bufferView":5,
			"componentType":5126,
			"count":5249,
			"type":"VEC2"
		},
		{
			"bufferView":6,
			"componentType":5121,
			"count":5249,
			"type":"VEC4"
		},
		{
			"bufferView":7,
			"componentType":5126,
			"count":5249,
			"type":"VEC4"
		},
		{
			"bufferView":8,
			"componentType":5123,
			"count":12471,
			"type":"SCALAR"
		},
		{
			"bufferView":9,
			"componentType":5126,
			"count":2,
			"type":"MAT4"
		}
	],
	"bufferViews":[
		{
			"buffer":0,
			"byteLength":62988,
			"byteOffset":0,
			"target":34962
		},
		{
			"buffer":0,
			"byteLength":62988,
			"byteOffset":62988,
			"target":34962
		},
		{
			"buffer":0,
			"byteLength":41992,
			"byteOffset":125976,
			"target":34962
		},
		{
			"buffer":0,
			"byteLength":41992,
			"byteOffset":167968,
			"target":34962
		},
		{
			"buffer":0,
			"byteLength":41992,
			"byteOffset":209960,
			"target":34962
		},
		{
			"buffer":0,
			"byteLength":41992,
			"byteOffset":251952,
			"target":34962
		},
		{
			"buffer":0,
			"byteLength":20996,
			"byteOffset":293944,
			"target":34962
		},
		{
			"buffer":0,
			"byteLength":83984,
			"byteOffset":314940,
			"target":34962
		},
		{
			"buffer":0,
			"byteLength":24942,
			"byteOffset":398924,
			"target":34963
		},
		{
			"buffer":0,
			"byteLength":128,
			"byteOffset":423868
		}
	],
	"samplers":[
		{
			"magFilter":9729,
			"minFilter":9987
		}
	],
	"buffers":[
		{
			"byteLength":423996,
			"uri":"CameraTest2.bin"
		}
	]
}
